<svg viewBox="0 0 20 20" fill="none" xmlns="http://www.w3.org/2000/svg">
    <path 
        fill-rule="evenodd" 
        clip-rule="evenodd" 
        d="M10 0.449951C4.61522 0.449951 0.25 4.81518 0.25 10.2C0.25 15.5847 4.61522 19.95 10 19.95C15.3848 19.95 19.75 15.5847 19.75 10.2C19.7443 4.81753 15.3824 0.455635 10 0.449951ZM10 18.45C5.44365 18.45 1.75 14.7563 1.75 10.2C1.75 5.6436 5.44365 1.94995 10 1.94995C14.5563 1.94995 18.25 5.6436 18.25 10.2C18.2448 14.7542 14.5542 18.4448 10 18.45ZM11.5 14.7C11.5 15.1142 11.1642 15.45 10.75 15.45C9.92157 15.45 9.25 14.7784 9.25 13.95V10.2C8.83579 10.2 8.5 9.86416 8.5 9.44995C8.5 9.03574 8.83579 8.69995 9.25 8.69995C10.0784 8.69995 10.75 9.37152 10.75 10.2V13.95C11.1642 13.95 11.5 14.2857 11.5 14.7ZM8.5 6.07495C8.5 5.45363 9.00368 4.94995 9.625 4.94995C10.2463 4.94995 10.75 5.45363 10.75 6.07495C10.75 6.69627 10.2463 7.19995 9.625 7.19995C9.00368 7.19995 8.5 6.69627 8.5 6.07495Z" 
    />
</svg>
