<svg viewBox="0 0 22 20" fill="none" xmlns="http://www.w3.org/2000/svg">
    <path 
        fill-rule="evenodd" 
        clip-rule="evenodd" 
        d="M21.2 16.2334L13.0016 1.9956C12.5847 1.28583 11.8231 0.849914 11 0.849914C10.1769 0.849914 9.4153 1.28583 8.99844 1.9956L0.8 16.2334C0.398659 16.9203 0.398659 17.7702 0.8 18.4572C1.21179 19.1717 1.97693 19.6085 2.80156 19.6H19.1984C20.0224 19.6079 20.7867 19.1711 21.1981 18.4572C21.6 17.7706 21.6008 16.9207 21.2 16.2334ZM19.8997 17.7062C19.7542 17.9545 19.4861 18.105 19.1984 18.1H2.80156C2.51387 18.105 2.24583 17.9545 2.10031 17.7062C1.96846 17.483 1.96846 17.2057 2.10031 16.9825L10.2987 2.74466C10.4471 2.49785 10.7139 2.34688 11.0019 2.34688C11.2898 2.34688 11.5567 2.49785 11.705 2.74466L19.9034 16.9825C20.0341 17.2064 20.0327 17.4837 19.8997 17.7062ZM10.25 12.1V8.34998C10.25 7.93576 10.5858 7.59998 11 7.59998C11.4142 7.59998 11.75 7.93576 11.75 8.34998V12.1C11.75 12.5142 11.4142 12.85 11 12.85C10.5858 12.85 10.25 12.5142 10.25 12.1ZM12.125 15.475C12.125 16.0963 11.6213 16.6 11 16.6C10.3787 16.6 9.875 16.0963 9.875 15.475C9.875 14.8537 10.3787 14.35 11 14.35C11.6213 14.35 12.125 14.8537 12.125 15.475Z" 
    />
</svg>
